<svg xmlns="http://www.w3.org/2000/svg" width="1486" height="425" viewBox="0 0 1486 425" fill="none"><path fill-rule="evenodd" clip-rule="evenodd" d="M1216.18 0.00012207H1156.74V330.576H1216.18V0.00012207ZM257.647 175.779L294.016 161.93C295.813 161.271 297.551 163.249 296.472 164.928L188.624 343.345C187.545 345.084 185.628 346.163 183.591 346.163H113.01C110.973 346.163 109.055 345.024 107.977 343.285L0.308297 164.928C-0.710271 163.249 0.967371 161.211 2.82476 161.93L39.0139 175.839C40.5717 176.439 42.0097 174.88 41.4105 173.381L0.847539 74.88C0.248381 73.3812 1.68636 71.8824 3.18426 72.422L80.236 99.4004C81.7338 99.88 82.9322 101.019 83.5313 102.518L135.958 234.412C136.617 236.091 134.999 237.71 133.321 237.11L100.667 225.12C98.8099 224.46 97.1921 226.439 98.1508 228.117L146.083 309.592C147.102 311.391 149.678 311.391 150.697 309.592L198.63 228.117C199.588 226.439 197.911 224.46 196.113 225.12L163.459 237.11C161.781 237.77 160.164 236.091 160.823 234.412L213.129 102.458C213.728 101.019 214.927 99.88 216.425 99.3405L293.476 72.362C294.974 71.8225 296.412 73.3213 295.813 74.8201L255.25 173.321C254.651 174.82 256.149 176.379 257.647 175.779ZM788.202 105.216C801.683 110.972 813.546 119.065 823.672 129.557C833.798 140.048 841.826 152.638 847.878 167.327C853.809 182.015 856.745 198.202 856.745 215.768C856.745 218.466 856.625 221.104 856.266 223.622C856.134 224.565 856.011 225.491 855.89 226.402L855.889 226.404L855.889 226.41C855.679 227.986 855.475 229.515 855.247 230.996C855.129 231.885 855.017 232.761 854.907 233.619C854.684 235.367 854.47 237.042 854.229 238.61H691.977C694.673 250.12 700.425 259.713 709.232 267.506C718.04 275.3 730.023 279.197 745.242 279.197C753.031 279.197 759.502 278.358 764.775 276.679C769.987 274.941 774.481 272.962 778.196 270.564C782.21 267.866 785.625 264.809 788.321 261.451H849.136C846.08 270.264 841.407 279.017 835.176 287.83C828.884 296.583 821.275 304.437 812.348 311.391C803.36 318.286 793.235 323.981 781.91 328.358C770.526 332.734 758.304 334.953 745.122 334.953C729.244 334.953 714.265 331.775 700.245 325.54C686.225 319.305 673.882 310.792 663.217 299.941C652.552 289.149 644.104 276.559 637.873 262.171C631.582 247.842 628.466 232.315 628.466 215.768C628.466 199.221 631.641 183.753 637.873 169.365C644.104 155.036 652.552 142.447 663.217 131.595C673.882 120.804 686.225 112.231 700.245 105.996C714.265 99.7007 729.244 96.5832 745.122 96.5832C760.341 96.5832 774.661 99.4609 788.202 105.216ZM707.795 165.528C698.148 174.341 691.977 185.192 689.281 198.022H800.844C798.148 185.132 791.976 174.341 782.33 165.528C772.683 156.715 760.281 152.339 745.062 152.339C729.844 152.339 717.441 156.715 707.795 165.528ZM506.297 287.11H497.789L443.505 96.343H380.294L454.889 330.576H549.257L623.792 96.343H560.581L506.297 287.11ZM959.321 127.038C966.871 110.971 985.744 92.5656 1027.75 92.5656C1082.45 92.5656 1118.82 132.674 1118.76 190.767V330.575H1059.32V195.503C1059.32 160.072 1041.41 142.626 1009.29 142.626C972.922 142.626 951.712 168.105 951.712 211.57V330.575H892.275V96.3426H950.813V127.038H959.321ZM1426.48 215.348V96.343H1485.92V372.122C1485.92 404.197 1465.19 425 1434.03 425H1286.76V373.082H1414.2C1422.71 373.082 1427.44 368.405 1427.44 358.933V299.88H1418.94C1411.39 315.947 1392.51 334.353 1350.51 334.353C1295.81 334.353 1259.44 294.245 1259.44 236.151V96.343H1318.88V231.415C1318.88 266.847 1336.79 284.293 1368.91 284.293C1405.27 284.293 1426.48 258.813 1426.48 215.348Z" fill="url(#paint0_linear)"></path><defs><linearGradient id="paint0_linear" x1="599.699" y1="0.000109332" x2="1186.69" y2="515.37" gradientUnits="userSpaceOnUse"><stop stop-color="#7735E8"></stop><stop offset="1" stop-color="#C62CF1"></stop></linearGradient></defs></svg>